<?xml version="1.0" encoding="utf-8"?>
<!-- Designed by Vexels.com - 2016 All Rights Reserved - https://vexels.com/terms-and-conditions/  -->

<svg version="1.0" id="Capa_1" xmlns="http://www.w3.org/2000/svg" xmlns:xlink="http://www.w3.org/1999/xlink" x="0px" y="0px"
	 width="1200px" height="1200px" viewBox="0 0 1200 1200" enable-background="new 0 0 1200 1200" xml:space="preserve">
<g>
	<path fill="#006838" d="M344.535,733.226l88.696-0.623L279.556,492.183L119.57,734.807l100.685-0.707
		c10.136,89.971,49.877,173.541,114.512,239.078c75.708,76.764,176.623,119.773,284.154,121.1l50.187,0.622l0.512-123.23
		l-49.341-0.637C481.338,969.235,366.104,866.215,344.535,733.226z"/>
	<path fill="#006838" d="M1075.025,708.065c17.357-106.412-7.406-213.275-69.737-300.905l-29.091-40.899l-99.829,72.241
		l28.578,40.231c80.48,113.29,65.204,267.13-29.477,362.934l-52.807-71.278l-103.569,265.883l290.294-13.848l-59.937-80.902
		C1016.139,880.285,1060.204,798.911,1075.025,708.065z"/>
	<path fill="#006838" d="M958.964,352.349L806.219,105.1l-41.737,91.631c-85.879-28.676-178.416-27.803-265.066,3.242
		c-101.502,36.363-182.99,109.8-229.457,206.783l-21.688,45.265l111.566,52.328l21.348-44.487
		c60.111-125.273,202.059-186.441,331.78-150.028l-36.767,80.719L958.964,352.349z"/>
</g>
</svg>
